<?xml version="1.0" standalone="no"?>
<!DOCTYPE svg PUBLIC "-//W3C//DTD SVG 20010904//EN"
 "http://www.w3.org/TR/2001/REC-SVG-20010904/DTD/svg10.dtd">
<svg version="1.0" xmlns="http://www.w3.org/2000/svg"
 width="736.000000pt" height="736.000000pt" viewBox="0 0 736.000000 736.000000"
 preserveAspectRatio="xMidYMid meet">

<g transform="translate(0.000000,736.000000) scale(0.100000,-0.100000)"
fill="#000000" stroke="none">
<path d="M2850 6840 c-65 -33 -128 -98 -163 -169 -36 -71 -52 -151 -62 -311
-2 -41 -9 -120 -14 -175 -6 -55 -13 -140 -16 -190 -3 -49 -12 -148 -21 -220
-20 -158 -14 -234 24 -347 37 -107 68 -153 201 -298 130 -142 204 -211 393
-367 120 -99 247 -269 276 -368 21 -74 24 -152 6 -169 -16 -17 -51 -21 -70 -8
-6 4 -34 42 -62 84 -83 123 -146 193 -221 243 -98 64 -262 119 -424 140 -138
18 -384 136 -490 234 -35 32 -161 199 -201 267 -16 27 -62 114 -102 194 -167
332 -280 484 -521 699 -68 61 -107 89 -117 85 -9 -3 -16 -13 -16 -21 0 -8 61
-74 134 -146 74 -73 145 -146 158 -164 128 -177 160 -233 235 -416 121 -298
212 -455 325 -563 94 -91 133 -117 266 -183 131 -65 256 -107 424 -140 131
-26 144 -31 217 -80 121 -83 231 -225 231 -301 0 -30 -2 -32 -27 -26 -16 4
-46 20 -68 37 -182 135 -368 203 -490 180 -34 -6 -162 -51 -230 -80 -11 -5
-55 -21 -98 -35 -84 -29 -138 -35 -204 -22 -40 8 -43 7 -43 -13 0 -59 171 -71
332 -25 124 36 188 44 278 33 79 -10 162 -45 229 -99 81 -63 136 -253 100
-347 -38 -103 -329 -297 -494 -330 -113 -22 -362 -16 -509 12 -17 4 -104 37
-195 75 -209 86 -303 117 -394 131 -40 6 -81 13 -93 15 -38 7 -122 78 -159
134 -30 46 -36 61 -34 105 4 91 40 183 89 223 53 44 182 58 253 29 51 -22 201
-122 259 -173 64 -58 122 -96 193 -126 81 -35 150 -48 283 -52 102 -3 116 -6
138 -27 63 -59 -11 -114 -135 -99 -43 6 -86 20 -135 45 -187 99 -424 185 -526
192 -145 10 -235 -39 -232 -126 1 -28 9 -43 38 -68 42 -37 78 -44 228 -48 56
-2 108 -4 116 -6 33 -5 50 2 50 21 0 29 -69 58 -180 75 -77 12 -97 45 -27 45
84 0 185 -40 360 -142 82 -48 235 -104 332 -123 58 -11 89 -11 181 -1 102 12
119 17 204 62 150 79 246 180 268 282 9 38 7 48 -15 87 -36 66 -75 89 -153 93
-46 2 -83 -3 -129 -17 -35 -12 -71 -21 -80 -21 -9 0 -22 -5 -27 -10 -17 -17
-192 -24 -274 -11 -41 7 -131 31 -200 54 -101 35 -146 57 -235 116 -60 41
-126 88 -146 106 -55 49 -218 143 -269 154 -66 15 -155 13 -198 -4 -62 -26
-126 -72 -150 -109 -28 -41 -53 -186 -40 -232 5 -16 13 -74 18 -129 13 -120
49 -246 87 -302 54 -79 140 -161 205 -194 34 -17 128 -55 209 -84 168 -61 181
-67 275 -130 133 -90 218 -126 364 -155 119 -24 314 -21 405 5 102 29 155 55
155 76 0 24 -25 24 -76 3 -51 -21 -272 -24 -364 -5 -125 26 -275 73 -314 98
-34 22 -37 27 -23 40 13 13 21 13 68 0 279 -81 627 -49 844 77 64 37 209 101
266 117 24 7 49 16 54 20 6 4 61 23 123 43 122 39 185 44 275 20 114 -30 152
-93 216 -359 15 -60 29 -288 25 -400 -7 -182 -8 -187 -72 -303 -64 -117 -98
-190 -160 -347 -55 -140 -67 -206 -56 -313 14 -145 11 -273 -8 -307 -9 -16
-49 -70 -89 -120 -40 -49 -87 -121 -105 -160 -40 -86 -65 -111 -126 -124 -40
-9 -56 -8 -101 9 -175 66 -252 335 -173 612 25 87 71 295 80 363 3 22 8 85 11
140 15 275 57 406 149 460 96 56 123 22 131 -170 3 -66 10 -136 17 -155 32
-98 7 -238 -88 -491 -64 -171 -87 -284 -79 -379 8 -89 41 -165 71 -165 22 0
23 15 5 120 -23 130 -6 187 145 490 148 299 175 388 171 560 -3 87 -8 129 -20
152 -10 18 -17 40 -17 50 0 10 -16 41 -35 70 -29 44 -43 54 -92 72 -127 45
-174 92 -156 154 11 39 100 97 148 97 38 0 106 -48 133 -93 84 -140 142 -301
142 -398 0 -50 25 -101 47 -97 9 2 21 17 26 33 14 42 12 366 -2 445 -33 180
-108 334 -186 377 -68 38 -181 26 -295 -32 -91 -46 -218 -164 -271 -250 -13
-22 -28 -47 -34 -56 -5 -9 -23 -40 -40 -69 -61 -107 -130 -202 -176 -244 -78
-70 -276 -159 -458 -207 -41 -10 -93 -30 -116 -44 -50 -29 -138 -123 -164
-174 -49 -96 -131 -293 -126 -301 15 -24 41 -8 62 38 62 133 239 309 353 351
19 7 44 17 55 21 11 5 40 11 65 14 137 14 285 82 369 170 43 44 86 49 121 11
21 -22 22 -30 16 -97 -3 -40 -8 -109 -11 -153 -11 -184 -38 -277 -113 -395
-134 -209 -176 -295 -185 -380 -3 -25 -12 -73 -21 -108 -22 -82 -22 -175 -1
-237 26 -74 119 -228 173 -283 59 -61 169 -123 247 -139 99 -21 249 -18 326 6
109 34 249 135 286 206 9 17 17 55 19 85 3 86 32 188 75 266 70 129 71 129 74
439 2 252 6 318 21 392 5 27 61 93 79 93 7 0 18 -7 26 -16 10 -13 10 -31 -4
-103 -27 -140 -18 -279 23 -346 29 -48 62 -180 55 -219 -8 -42 9 -56 36 -29
14 14 22 39 26 89 4 58 1 81 -19 140 -22 64 -24 81 -18 150 4 44 29 160 55
259 43 168 47 189 47 306 0 133 -8 186 -51 354 -5 22 -15 69 -21 105 -7 36
-16 85 -20 110 -11 60 2 107 44 156 27 32 46 43 89 53 66 16 106 6 163 -43
122 -103 471 -284 586 -303 105 -17 449 -160 601 -250 57 -33 185 -175 233
-255 41 -71 75 -159 99 -258 10 -41 32 -109 49 -150 26 -65 31 -87 31 -165 0
-74 -4 -97 -23 -132 -27 -52 -47 -63 -110 -64 -85 -2 -141 32 -277 171 -66 68
-158 161 -205 207 -121 121 -279 222 -455 292 -124 49 -157 92 -124 164 35 78
195 86 334 17 118 -58 190 -160 115 -160 -32 0 -79 21 -156 70 -36 23 -51 27
-65 19 -11 -5 -19 -16 -19 -24 0 -27 86 -83 182 -119 171 -64 218 -96 374
-253 138 -139 143 -143 184 -143 33 0 48 6 71 29 16 16 29 38 30 48 0 10 2 29
4 43 5 41 -22 144 -58 220 -59 123 -229 334 -326 403 -100 72 -303 168 -382
182 -18 3 -35 8 -38 10 -4 2 -42 8 -86 14 -143 20 -329 90 -427 162 -32 22
-44 26 -54 18 -22 -18 -17 -27 40 -82 79 -77 178 -123 446 -212 206 -68 275
-97 361 -156 63 -42 177 -152 243 -232 93 -115 153 -247 112 -247 -8 0 -60 53
-116 118 -180 206 -315 312 -481 378 -62 24 -121 39 -174 45 -275 29 -433 127
-600 373 -64 96 -88 116 -103 90 -14 -25 2 -84 53 -199 8 -16 28 -61 45 -100
29 -65 65 -167 103 -290 17 -56 28 -136 33 -240 9 -192 32 -267 119 -400 60
-91 64 -102 71 -173 3 -41 3 -107 -1 -146 -10 -100 -17 -464 -10 -503 4 -22
12 -33 23 -33 15 0 20 22 35 163 10 89 24 198 33 242 10 50 16 145 17 255 2
168 1 179 -26 259 -53 157 -14 236 125 254 142 19 399 -153 524 -350 20 -32
53 -84 73 -116 67 -109 120 -176 158 -201 55 -37 169 -76 239 -83 76 -7 118 6
207 64 113 75 181 190 202 345 6 41 2 58 -33 135 -57 123 -72 181 -91 338 -5
39 -12 84 -16 100 -15 60 -69 147 -125 198 -56 53 -101 75 -305 153 -38 14
-83 32 -100 40 -231 101 -302 128 -430 165 -162 46 -302 98 -346 129 -15 11
-30 20 -33 20 -3 0 -29 14 -58 32 -29 17 -64 37 -77 44 -50 27 -131 106 -183
181 -139 199 -148 340 -28 483 55 66 140 129 197 146 43 13 49 13 65 -4 21
-20 27 -87 10 -117 -64 -117 -105 -264 -96 -350 16 -151 122 -328 231 -387
149 -81 370 -86 598 -14 6 1 24 6 40 10 27 7 139 40 325 98 36 11 118 44 182
74 133 62 172 71 353 79 168 7 295 44 295 85 0 28 -19 29 -80 4 -82 -33 -165
-45 -266 -38 -49 3 -92 8 -96 10 -14 9 -147 -25 -194 -49 -44 -22 -90 -37
-324 -107 -36 -11 -85 -26 -110 -34 -25 -7 -61 -17 -80 -21 -19 -4 -39 -11
-45 -15 -9 -6 -90 -26 -200 -47 -22 -4 -87 -7 -145 -7 -146 2 -197 23 -282
112 -69 73 -87 113 -98 217 -8 69 3 106 70 250 23 50 57 135 75 190 47 145 99
240 219 395 42 55 313 338 587 611 130 130 249 177 406 160 30 -3 84 -118 98
-206 2 -11 10 -40 19 -65 20 -57 21 -193 2 -292 -16 -80 -68 -228 -126 -354
-74 -161 -125 -222 -435 -515 -130 -124 -183 -162 -267 -193 -113 -40 -182
-16 -207 73 -13 44 -9 52 102 169 51 54 114 126 140 160 43 55 137 205 137
218 0 14 72 115 113 157 52 53 82 59 116 23 20 -21 21 -27 11 -70 -21 -93 -76
-180 -194 -304 -40 -42 -78 -86 -83 -97 -13 -25 1 -65 22 -65 43 0 175 126
252 240 103 153 179 328 212 485 44 211 20 299 -89 316 -104 16 -187 -45 -353
-262 -48 -63 -104 -135 -125 -161 -78 -98 -313 -417 -377 -513 -93 -140 -116
-195 -116 -284 1 -141 115 -232 294 -233 90 0 138 18 292 113 254 156 472 400
733 821 107 173 197 409 231 607 35 207 -1 373 -108 493 -56 63 -106 81 -213
77 -71 -3 -94 -9 -153 -38 -135 -66 -241 -156 -345 -291 -31 -41 -180 -194
-331 -340 -151 -145 -319 -310 -374 -366 -138 -141 -241 -226 -316 -264 -35
-18 -99 -58 -142 -89 -111 -79 -116 -81 -143 -69 -17 8 -24 19 -24 40 0 24 23
52 128 156 142 141 214 242 237 329 9 32 20 117 25 188 18 258 58 332 275 518
44 38 89 76 100 86 35 30 119 88 151 104 61 31 130 104 158 167 28 63 69 195
81 265 13 73 76 219 121 278 24 31 44 64 44 72 0 32 -40 12 -95 -47 -44 -48
-73 -95 -132 -217 -114 -235 -121 -243 -317 -396 -185 -143 -293 -237 -348
-300 -102 -118 -169 -292 -191 -495 -7 -63 -59 -224 -90 -280 -67 -120 -164
-207 -302 -271 -74 -34 -108 -35 -113 -3 -2 15 9 31 36 53 94 74 211 247 261
387 28 78 31 93 27 182 -6 140 -23 180 -152 353 -133 179 -169 260 -169 385 0
72 3 85 28 120 39 58 36 70 -18 64 -46 -4 -83 -82 -95 -204 -12 -116 5 -178
95 -353 113 -219 134 -277 144 -397 9 -113 0 -154 -46 -215 -35 -47 -46 -55
-118 -93 -50 -26 -72 -32 -131 -32 -62 -1 -76 3 -119 29 -28 17 -100 88 -169
164 -66 74 -174 181 -241 239 -193 168 -335 318 -377 398 -43 83 -71 163 -93
264 -9 41 -21 93 -27 115 -20 72 -19 261 2 345 33 132 73 231 130 321 45 69
113 100 221 101 155 1 238 -51 303 -192 60 -130 64 -218 19 -410 -12 -50 -18
-117 -18 -200 l0 -125 48 -109 c52 -119 63 -166 53 -220 -5 -26 -15 -40 -37
-51 -37 -20 -61 -13 -116 31 -65 53 -100 136 -114 264 -11 118 -28 184 -70
281 -38 89 -48 172 -24 199 40 44 78 13 116 -94 24 -70 40 -84 61 -59 20 25
17 234 -5 299 -36 104 -117 164 -224 164 -52 0 -75 -11 -121 -54 -59 -55 -73
-96 -72 -212 0 -76 14 -128 53 -196 44 -77 69 -171 91 -343 8 -60 24 -132 36
-160 30 -71 176 -260 273 -354 83 -81 263 -221 283 -221 2 0 23 -11 45 -26 49
-30 100 -37 143 -17 76 35 102 53 125 85 21 30 23 40 18 122 -4 81 -8 96 -53
183 -26 51 -76 140 -110 196 -35 56 -91 158 -126 226 -70 140 -70 142 -54 391
10 159 9 283 -3 363 -13 90 -83 234 -150 308 -45 50 -219 184 -322 247 -96 59
-221 77 -289 42z"/>
</g>
</svg>
